HIERARCHY
ROOT Hips
{
	OFFSET 0.000000 8.830580 0.000000
	CHANNELS 6 Xposition Yposition Zposition Zrotation Yrotation Xrotation 
	JOINT Spine
	{
		OFFSET 0.000000 0.010000 0.000000
		CHANNELS 3 Zrotation Yrotation Xrotation
		JOINT Spine1
		{
			OFFSET 0.000000 2.459130 0.000000
			CHANNELS 3 Zrotation Yrotation Xrotation
			JOINT Neck
			{
				OFFSET 0.000000 2.484630 0.000000
				CHANNELS 3 Zrotation Yrotation Xrotation
				JOINT Head_virtual
				{
					OFFSET 0.000000 0.000000 0.000000
					CHANNELS 3 Zrotation Yrotation Xrotation
					JOINT Head
					{
						OFFSET 0.000000 0.927525 0.000000
						CHANNELS 3 Zrotation Yrotation Xrotation
						End Site
						{
							OFFSET 0.000000 0.000000 0.000000
						}
					}
				}
				JOINT LeftUpArm_virtual
				{
					OFFSET 0.000000 0.000000 0.000000
					CHANNELS 3 Zrotation Yrotation Xrotation
					JOINT LeftUpArm
					{
						OFFSET 1.248820 0.000000 0.000000
						CHANNELS 3 Zrotation Yrotation Xrotation
						JOINT LeftForeArm
						{
							OFFSET 2.597580 0.000000 0.000000
							CHANNELS 3 Zrotation Yrotation Xrotation
							JOINT LeftHand
							{
								OFFSET 2.455420 0.000000 0.000000
								CHANNELS 3 Zrotation Yrotation Xrotation
								End Site
								{
									OFFSET 0.000000 0.000000 0.000000
								}
							}
						}
					}
				}
				JOINT RightUpArm_virtual
				{
					OFFSET -0.000000 -0.000000 -0.000000
					CHANNELS 3 Zrotation Yrotation Xrotation
					JOINT RightUpArm
					{
						OFFSET -1.248820 -0.000000 -0.000000
						CHANNELS 3 Zrotation Yrotation Xrotation
						JOINT RightForeArm
						{
							OFFSET -2.597580 -0.000000 -0.000000
							CHANNELS 3 Zrotation Yrotation Xrotation
							JOINT RightHand
							{
								OFFSET -2.455420 -0.000000 -0.000000
								CHANNELS 3 Zrotation Yrotation Xrotation
								End Site
								{
									OFFSET 0.000000 0.000000 0.000000
								}
							}
						}
					}
				}
			}
		}
	}
	JOINT LeftUpLeg
	{
		OFFSET 1.271939 0.000000 0.000000
		CHANNELS 3 Zrotation Yrotation Xrotation
		JOINT LeftLowLeg
		{
			OFFSET 0.000000 -4.342910 0.000000
			CHANNELS 3 Zrotation Yrotation Xrotation
			JOINT LeftFoot
			{
				OFFSET 0.000000 -4.487670 0.000000
				CHANNELS 3 Zrotation Yrotation Xrotation
				JOINT LeftToeBase
				{
					OFFSET 0.000000 0.000000 1.515070
					CHANNELS 3 Zrotation Yrotation Xrotation
					End Site
					{
						OFFSET 0.000000 0.000000 0.000000
					}
				}
			}
		}
	}
	JOINT RightUpLeg
	{
		OFFSET -1.271939 0.000000 0.000000
		CHANNELS 3 Zrotation Yrotation Xrotation
		JOINT RightLowLeg
		{
			OFFSET 0.000000 -4.342910 0.000000
			CHANNELS 3 Zrotation Yrotation Xrotation
			JOINT RightFoot
			{
				OFFSET 0.000000 -4.487670 0.000000
				CHANNELS 3 Zrotation Yrotation Xrotation
				JOINT RightToeBase
				{
					OFFSET 0.000000 0.000000 1.515070
					CHANNELS 3 Zrotation Yrotation Xrotation
					End Site
					{
						OFFSET 0.000000 0.000000 0.000000
					}
				}
			}
		}
	}
}
MOTION
Frames: 5
Frame Time: 0.041667
-14.371262 9.208286 39.088412 -164.664727 -55.373013 170.003274 0.575263 -5.859373 -5.154723 8.751209 -0.696330 4.804926 0.000000 0.000000 0.000000 -7.147551 4.570688 21.213645 16.751172 -0.095099 -89.860297 -24.289900 3.651460 4.259190 -43.481602 -41.275600 22.250401 -180.000000 -71.007004 180.000000 17.302299 40.747501 -90.833702 22.762800 -3.810440 13.154999 23.577200 11.848200 -9.910410 -180.000000 81.734802 -180.000000 27.530001 -14.293600 9.271640 2.279692 17.041853 -2.700520 0.000000 0.000000 13.685800 -15.419442 -3.774836 -2.126415 0.000000 0.000000 -31.139500 10.600281 3.607201 -9.841421 0.000000 0.000000 13.712700 11.931302 -8.266280 10.627831 0.000000 0.000000 -40.925501 
-14.407482 9.202638 39.073190 -164.933295 -55.161071 170.153520 1.017098 -5.735812 -5.310283 8.644636 -0.638531 4.863763 0.000000 0.000000 0.000000 -7.428429 4.498696 20.913055 16.551907 -0.495054 -89.860629 -24.624500 3.603260 4.555220 -43.153702 -41.132801 21.882799 -180.000000 -71.363998 180.000000 17.031500 40.646400 -90.497597 23.115200 -3.522840 13.042999 24.505501 12.988000 -11.014500 -180.000000 81.321297 -180.000000 36.403500 1.405690 -16.085699 2.210374 16.831680 -2.832404 0.000000 0.000000 14.686400 -15.150593 -3.398075 -2.502203 0.000000 0.000000 -30.793700 10.349659 4.412265 -9.270336 0.000000 0.000000 13.257600 12.384892 -8.342146 10.245799 0.000000 0.000000 -40.526100 
-14.443818 9.199207 39.057533 -164.990629 -55.050402 170.192595 1.364875 -5.544303 -5.466009 8.953448 -0.486792 4.826295 0.000000 0.000000 0.000000 -7.706059 4.315140 20.713723 16.453086 -0.990001 -89.791082 -25.099899 3.257140 4.809630 -43.092300 -40.802200 21.768000 180.000000 -71.802002 -180.000000 17.040400 40.470001 -90.637199 23.257500 -3.264480 13.395996 24.811899 14.532000 -10.258600 -180.000000 80.310997 -180.000000 36.028099 14.451100 -33.763599 2.205671 16.281578 -3.101874 0.000000 0.000000 15.780000 -15.044992 -2.916856 -2.884541 0.000000 0.000000 -30.995700 10.194846 4.078985 -8.884456 0.000000 0.000000 13.074500 13.069237 -7.411235 10.147591 0.000000 0.000000 -40.879700 
-14.478098 9.197415 39.043472 -164.981271 -55.014381 170.142072 1.942168 -5.393697 -5.422671 8.867644 -0.391487 4.563287 0.000000 0.000000 0.000000 -8.090873 4.445597 20.564791 16.625517 -1.439883 -89.723940 -25.387199 3.162460 4.934050 -43.179501 -40.461399 22.020000 -180.000000 -72.319000 180.000000 17.040100 40.480701 -90.786102 23.521900 -2.924040 14.359985 24.818501 16.520700 -8.985260 -180.000000 78.319000 -180.000000 30.164200 23.172100 -46.921101 2.197763 15.371319 -3.513929 0.000000 0.000000 17.144300 -15.038942 -2.222893 -3.326206 0.000000 0.000000 -31.058901 10.081258 3.259724 -8.660740 0.000000 0.000000 13.168500 13.484541 -6.182166 10.247754 0.000000 0.000000 -40.893000 
-14.509534 9.195765 39.028832 -164.892597 -55.116698 170.013333 2.518827 -5.342971 -5.350947 8.763698 -0.395966 4.298433 0.000000 0.000000 0.000000 -8.465396 4.594376 20.433341 16.600808 -1.882739 -89.543375 -25.532101 3.095200 5.329630 -43.085499 -40.251999 22.039301 -180.000000 -72.843002 -180.000000 17.102900 40.417500 -91.113502 23.778299 -2.469840 14.843994 24.618200 18.435801 -6.196820 180.000000 75.168999 180.000000 16.438499 23.446600 -55.753799 2.169848 13.516006 -4.117813 0.000000 0.000000 18.823500 -15.448039 -1.110214 -3.929740 0.000000 0.000000 -30.831600 10.040152 2.269219 -8.502557 0.000000 0.000000 13.355300 13.724440 -5.045259 10.339016 0.000000 0.000000 -40.858500 
